<svg width="33" height="33" viewBox="0 0 33 33" fill="none" xmlns="http://www.w3.org/2000/svg">
<g id="fitness">
<path id="Vector" d="M17.904 4.69255C17.904 5.77451 17.0269 6.65161 15.945 6.65161C14.863 6.65161 13.9859 5.77451 13.9859 4.69255C13.9859 3.61059 14.863 2.7335 15.945 2.7335C17.0269 2.7335 17.904 3.6106 17.904 4.69255Z" fill="#4338CA" stroke="#4338CA" stroke-width="1.8"/>
<path id="Vector 17" d="M24.8005 13.2659L27.4596 10.6288C27.6926 10.3978 28.0842 10.607 28.0215 10.9291L25.0958 25.9757" stroke="#F97316" stroke-width="1.8" stroke-linecap="round"/>
<path id="Vector_2" d="M28.5239 28.2308C28.5239 29.356 27.6129 30.267 26.4878 30.267H5.23755C4.40669 30.267 3.73398 29.5943 3.73398 28.7634C3.73398 27.9645 4.35981 27.3042 5.16097 27.2622C5.16121 27.2621 5.16146 27.2621 5.16171 27.2621L26.3857 26.1971C26.3857 26.1971 26.3857 26.1971 26.3857 26.1971C27.5495 26.1388 28.5239 27.0669 28.5239 28.2308Z" fill="#C7D2FE" stroke="#4338CA" stroke-width="1.8"/>
<path id="Vector 14" d="M5.67554 11.9062L9.16574 9.66884C9.38048 9.53118 9.63021 9.45801 9.8853 9.45801H15.5977C16.0495 9.45801 16.4706 9.68682 16.7164 10.0659L17.8648 11.8369C18.1106 12.2159 18.5317 12.4447 18.9835 12.4447H21.5395" stroke="#4338CA" stroke-width="1.8" stroke-linecap="round"/>
<g id="Vector 15">
<path d="M16.0634 19.5964L14.2286 24.6288L17.1692 18.9246C17.2971 18.6765 17.2569 18.375 17.0684 18.169L14.7928 15.6827C14.6255 15.4999 14.5734 15.2394 14.6575 15.0064L15.9695 11.369C16.283 10.5 15.6391 9.58325 14.7153 9.58325H12.6397L10.9027 15.3324C10.8172 15.6152 10.9281 15.9206 11.1752 16.0826L15.933 19.2035C16.0624 19.2884 16.1163 19.4511 16.0634 19.5964Z" fill="#4338CA"/>
<path d="M14.2286 24.6288L13.3831 24.3205C13.2204 24.7668 13.4325 25.2627 13.8676 25.4532C14.3026 25.6438 14.8109 25.4634 15.0286 25.0412L14.2286 24.6288ZM16.0634 19.5964L15.2178 19.2881L15.2178 19.2881L16.0634 19.5964ZM15.933 19.2035L15.4394 19.9561H15.4394L15.933 19.2035ZM11.1752 16.0826L11.6688 15.3301H11.6688L11.1752 16.0826ZM10.9027 15.3324L10.0411 15.0721H10.0411L10.9027 15.3324ZM12.6397 9.58325V8.68325H11.9714L11.7781 9.32295L12.6397 9.58325ZM15.9695 11.369L15.1229 11.0636V11.0636L15.9695 11.369ZM14.6575 15.0064L13.8108 14.701L13.8108 14.701L14.6575 15.0064ZM14.7928 15.6827L14.1289 16.2903H14.1289L14.7928 15.6827ZM17.0684 18.169L16.4045 18.7767V18.7767L17.0684 18.169ZM17.1692 18.9246L17.9692 19.337L17.1692 18.9246ZM15.0742 24.9371L16.9089 19.9047L15.2178 19.2881L13.3831 24.3205L15.0742 24.9371ZM16.4266 18.451L11.6688 15.3301L10.6815 16.8352L15.4394 19.9561L16.4266 18.451ZM11.7642 15.5927L13.5012 9.84355L11.7781 9.32295L10.0411 15.0721L11.7642 15.5927ZM12.6397 10.4833H14.7153V8.68325H12.6397V10.4833ZM15.1229 11.0636L13.8108 14.701L15.5041 15.3118L16.8161 11.6744L15.1229 11.0636ZM14.1289 16.2903L16.4045 18.7767L17.7323 17.5614L15.4567 15.075L14.1289 16.2903ZM16.3693 18.5122L13.4287 24.2164L15.0286 25.0412L17.9692 19.337L16.3693 18.5122ZM13.8108 14.701C13.6133 15.2487 13.7358 15.8608 14.1289 16.2903L15.4567 15.075C15.5152 15.139 15.5335 15.2302 15.5041 15.3118L13.8108 14.701ZM14.7153 10.4833C15.0156 10.4833 15.2248 10.7812 15.1229 11.0636L16.8161 11.6744C17.3412 10.2188 16.2627 8.68325 14.7153 8.68325V10.4833ZM11.6688 15.3301C11.7553 15.3868 11.7941 15.4937 11.7642 15.5927L10.0411 15.0721C9.84029 15.7367 10.1009 16.4543 10.6815 16.8352L11.6688 15.3301ZM16.4045 18.7767C16.3386 18.7046 16.3245 18.5991 16.3693 18.5122L17.9692 19.337C18.2698 18.7539 18.1752 18.0453 17.7323 17.5614L16.4045 18.7767ZM16.9089 19.9047C17.105 19.3669 16.9053 18.7649 16.4266 18.451L15.4394 19.9561C15.2195 19.8118 15.1277 19.5352 15.2178 19.2881L16.9089 19.9047Z" fill="#4338CA"/>
</g>
<path id="Vector 16" d="M5.70288 18.8201C5.20582 18.8201 4.80288 19.2231 4.80288 19.7201C4.80288 20.2172 5.20582 20.6201 5.70288 20.6201L5.70288 18.8201ZM10.9322 19.5745L10.1885 19.0677L10.9322 19.5745ZM5.70288 20.6201L10.6567 20.6201L10.6567 18.8201L5.70288 18.8201L5.70288 20.6201ZM11.6759 20.0814L12.6186 18.6983L11.1312 17.6845L10.1885 19.0677L11.6759 20.0814ZM10.6567 20.6201C11.0646 20.6201 11.4462 20.4185 11.6759 20.0814L10.1885 19.0677C10.294 18.9128 10.4693 18.8201 10.6567 18.8201L10.6567 20.6201Z" fill="#4338CA"/>
</g>
</svg>
