<svg width="18" height="24" viewBox="0 0 18 24" fill="none" xmlns="http://www.w3.org/2000/svg">
<g id="Group 54">
<path id="Vector 35" d="M12.9568 2.16895H14.9631" stroke="#F97316" stroke-width="1.5" stroke-linecap="round"/>
<path id="Vector 37" d="M12.6453 4.48315H15.2745" stroke="#F97316" stroke-width="1.5" stroke-linecap="round"/>
<path id="Vector 39" d="M12.21 6.91187H15.71" stroke="#F97316" stroke-width="1.5" stroke-linecap="round"/>
<path id="Vector 34" d="M13.946 1.12598V10.7634" stroke="#F97316" stroke-width="1.5" stroke-linecap="round"/>
<path id="Vector 32" d="M4.43487 1.64111H5.10907L5.78816 1.64113C6.22861 1.64114 6.58571 1.99819 6.58571 2.43864V4.11773L7.7702 4.57537C8.40331 4.81998 8.81407 5.43642 8.79606 6.1149L8.40627 19.797C8.38187 20.716 7.95853 21.5789 7.24663 22.1606C6.68218 22.6218 5.97565 22.8738 5.24672 22.8738H5.10907H4.97284C4.24302 22.8738 3.53564 22.6215 2.9705 22.1597C2.25913 21.5785 1.83548 20.7167 1.8096 19.7985L1.42403 6.11681C1.40489 5.4374 1.81582 4.81962 2.44982 4.57467L3.63248 4.11773V2.4435C3.63248 2.00036 3.99172 1.64111 4.43487 1.64111Z" fill="#E0E7FF" stroke="#4338CA" stroke-width="1.5" stroke-linecap="round"/>
<path id="Vector 33" d="M13.2345 10.5254H14.0033H14.7721C14.9767 10.5254 15.1426 10.6913 15.1426 10.8959V11.4953C15.1426 11.6999 15.3085 11.8658 15.5131 11.8658H16.1244C16.566 11.8658 16.9096 12.2496 16.8609 12.6885L16.0796 19.7317C16.0439 20.0537 15.9695 20.3702 15.8581 20.6744L15.5437 21.5322C15.3006 22.1955 14.7436 22.6928 14.06 22.8608C14.0228 22.87 13.9839 22.8697 13.9464 22.8616C13.2724 22.7154 12.7202 22.2344 12.4829 21.5869L12.1485 20.6744C12.037 20.3702 11.9626 20.0537 11.9269 19.7317L11.1457 12.6885C11.097 12.2496 11.4406 11.8658 11.8822 11.8658H12.4935C12.6981 11.8658 12.864 11.6999 12.864 11.4953V10.8959C12.864 10.6913 13.0299 10.5254 13.2345 10.5254Z" fill="#E0E7FF" stroke="#4338CA" stroke-width="1.5" stroke-linecap="round"/>
</g>
</svg>
