<svg width="32" height="31" viewBox="0 0 32 31" fill="none" xmlns="http://www.w3.org/2000/svg">
<g id="Group 43">
<g id="Group 40">
<path id="Vector 11" d="M22.9358 6.16211H30.7954" stroke="#F97316" stroke-width="1.8"/>
<path id="Vector 12" d="M22.9358 11.2856H30.7954" stroke="#4338CA" stroke-width="1.8"/>
<path id="Vector 13" d="M22.9358 16.0715H30.7954" stroke="#F97316" stroke-width="1.8"/>
<path id="Vector 10" d="M23.0051 1.58643H28.411C29.7017 1.58643 30.748 2.63272 30.748 3.92339V29.6922" stroke="#4338CA" stroke-width="1.8"/>
</g>
<g id="Group 42">
<g id="Group 31">
<path id="Vector 9" d="M8.18726 1.30811L8.18726 10.4946C8.18726 11.8507 8.48201 13.1906 9.05109 14.4215L14.1074 25.3579L14.4077 26.0074" stroke="#4338CA" stroke-width="1.8"/>
<ellipse id="Ellipse 8" cx="17.963" cy="25.7399" rx="3.67394" ry="3.67395" fill="#C7D2FE" stroke="#4338CA" stroke-width="1.8"/>
</g>
<g id="Group 41">
<path id="Vector 9_2" d="M14.9121 1.30811L14.9121 10.4946C14.9121 11.8507 14.6174 13.1906 14.0483 14.4215L8.70486 25.9788" stroke="#4338CA" stroke-width="1.8"/>
<ellipse id="Ellipse 8_2" cx="3.67394" cy="3.67395" rx="3.67394" ry="3.67395" transform="matrix(-1 0 0 1 8.8103 22.0659)" fill="#C7D2FE" stroke="#4338CA" stroke-width="1.8"/>
</g>
</g>
</g>
</svg>
