<svg width="23" height="24" viewBox="0 0 23 24" fill="none" xmlns="http://www.w3.org/2000/svg">
<g id="Group 62">
<path id="Vector 49" d="M11.1343 1.81494H11.9677C11.9677 1.35554 11.5959 0.982792 11.1365 0.981611C10.6771 0.980429 10.3034 1.35126 10.301 1.81065L11.1343 1.81494ZM6.65617 18.2871L6.99957 19.0464L7.06615 19.0163L7.12647 18.975L6.65617 18.2871ZM4.02274 19.2121L3.88909 18.3895L4.02274 19.2121ZM7.46692 21.6313L7.24942 20.8269L7.46692 21.6313ZM12.0149 4.47554L11.5471 5.16524L11.5471 5.16524L12.0149 4.47554ZM14.7911 18.2871L14.3208 18.975L14.3812 19.0163L14.4477 19.0464L14.7911 18.2871ZM18.2353 19.2121L18.1017 20.0346L18.2353 19.2121ZM14.7911 21.6313L14.5736 22.4358L14.7911 21.6313ZM11.129 21.106L11.2185 20.2775L11.1262 20.2675L11.0339 20.2781L11.129 21.106ZM5.3025 6.65307L4.94394 5.90082L5.3025 6.65307ZM5.12458 7.34101L5.80196 6.85563L5.12458 7.34101ZM10.301 1.81065L10.2968 2.62571L11.9635 2.63428L11.9677 1.81923L10.301 1.81065ZM9.63821 3.66331L4.94394 5.90082L5.66106 7.40532L10.3553 5.16782L9.63821 3.66331ZM6.31277 17.5278C5.70487 17.8027 5.22947 18.1718 3.88909 18.3895L4.15638 20.0346C5.78177 19.7705 6.55863 19.2458 6.99957 19.0464L6.31277 17.5278ZM3.88909 18.3895C2.99579 18.5347 2.10885 18.6876 1.45046 18.9829C1.10715 19.1369 0.764004 19.3551 0.507208 19.686C0.238499 20.0322 0.110514 20.4423 0.110514 20.8887H1.77718C1.77718 20.7758 1.80347 20.7341 1.82382 20.7079C1.85609 20.6663 1.93678 20.5914 2.13261 20.5036C2.5525 20.3152 3.205 20.1892 4.15638 20.0346L3.88909 18.3895ZM0.110514 20.8887C0.110514 21.5043 0.450253 21.9876 0.892041 22.3083C1.32113 22.6198 1.8863 22.8156 2.51777 22.9208C3.78806 23.1324 5.54596 23.0139 7.68442 22.4358L7.24942 20.8269C5.25275 21.3667 3.7491 21.4363 2.79165 21.2768C2.30924 21.1964 2.01898 21.0669 1.87111 20.9595C1.73593 20.8614 1.77718 20.8325 1.77718 20.8887H0.110514ZM10.301 1.81494V2.93007H11.9677V1.81494H10.301ZM14.4477 19.0464C15.0569 19.3219 16.5688 19.7856 18.1017 20.0346L18.369 18.3895C16.9361 18.1567 15.5742 17.7266 15.1345 17.5278L14.4477 19.0464ZM18.1017 20.0346C19.0531 20.1892 19.7056 20.3152 20.1255 20.5036C20.3213 20.5914 20.402 20.6663 20.4342 20.7079C20.4546 20.7341 20.4809 20.7758 20.4809 20.8887H22.1476C22.1476 20.4423 22.0196 20.0322 21.7509 19.686C21.4941 19.3551 21.1509 19.1369 20.8076 18.9829C20.1492 18.6876 19.2623 18.5347 18.369 18.3895L18.1017 20.0346ZM20.4809 20.8887C20.4809 20.8325 20.5221 20.8614 20.387 20.9595C20.2391 21.0669 19.9488 21.1964 19.4664 21.2768C18.509 21.4363 17.0053 21.3667 15.0086 20.8269L14.5736 22.4358C16.7121 23.0139 18.47 23.1324 19.7403 22.9208C20.3718 22.8156 20.9369 22.6198 21.366 22.3083C21.8078 21.9876 22.1476 21.5043 22.1476 20.8887H20.4809ZM10.301 2.93007C10.301 3.84342 10.7941 4.65453 11.5471 5.16524L12.4826 3.78585C12.1217 3.5411 11.9677 3.21649 11.9677 2.93007H10.301ZM7.68442 22.4358C9.52295 21.9387 10.3515 22.0341 11.2242 21.9339L11.0339 20.2781C10.4152 20.3492 9.24364 20.2877 7.24942 20.8269L7.68442 22.4358ZM15.0086 20.8269C13.0354 20.2933 11.8517 20.3458 11.2185 20.2775L11.0396 21.9345C11.8912 22.0265 12.7672 21.9474 14.5736 22.4358L15.0086 20.8269ZM11.5471 5.16524C12.2031 5.61006 13.0388 6.04346 13.8495 6.4472C14.6823 6.86191 15.487 7.24468 16.1629 7.61639L16.966 6.15596C16.2504 5.76245 15.3845 5.34969 14.5925 4.95529C13.7785 4.54992 13.0352 4.16061 12.4826 3.78585L11.5471 5.16524ZM4.4472 7.82639C5.50794 9.30673 6.82092 11.2531 7.39921 13.1306C7.68568 14.0606 7.7705 14.9093 7.60355 15.6427C7.44239 16.3507 7.03191 17.0208 6.18587 17.5991L7.12647 18.975C8.29781 18.1742 8.96864 17.155 9.22865 16.0126C9.48287 14.8958 9.32873 13.7331 8.99203 12.64C8.32398 10.471 6.85379 8.32351 5.80196 6.85563L4.4472 7.82639ZM16.0249 7.08019C15.1657 8.33854 13.8503 10.5631 13.1518 12.783C12.8032 13.8908 12.5876 15.0606 12.7026 16.1371C12.8205 17.241 13.2932 18.2725 14.3208 18.975L15.2614 17.5991C14.719 17.2283 14.4376 16.6875 14.3599 15.9601C14.2792 15.2052 14.4265 14.2848 14.7416 13.2832C15.3706 11.2843 16.5863 9.21372 17.4013 8.01997L16.0249 7.08019ZM16.1629 7.61639C15.9422 7.49499 15.9192 7.23501 16.0249 7.08019L17.4013 8.01997C17.8137 7.41602 17.6633 6.53939 16.966 6.15596L16.1629 7.61639ZM4.94394 5.90082C4.21657 6.24752 3.97526 7.16778 4.4472 7.82639L5.80196 6.85563C5.93715 7.04429 5.86655 7.30738 5.66106 7.40532L4.94394 5.90082ZM10.2968 2.62571C10.2945 3.06929 10.0386 3.47245 9.63821 3.66331L10.3553 5.16782C11.3331 4.70178 11.9579 3.71738 11.9635 2.63428L10.2968 2.62571Z" fill="#4338CA"/>
<g id="Vector 51">
<path d="M0.943604 20.8886C0.943604 19.7699 2.17781 19.5117 4.02249 19.212C4.16059 19.1896 4.29829 19.1654 4.4349 19.1397L4.63025 19.1096C5.60654 18.9602 7.96684 18.8581 9.66705 19.5514C11.7923 20.4181 12.8614 21.1281 13.6472 21.3672C12.4554 21.1424 11.7054 21.1682 11.1288 21.1059C10.3831 21.1916 9.38305 21.1131 7.46668 21.6312C3.33154 22.7493 0.943604 22.0074 0.943604 20.8886Z" fill="white"/>
<path d="M4.02249 19.212L3.88885 18.3895V18.3895L4.02249 19.212ZM7.46668 21.6312L7.24918 20.8268H7.24918L7.46668 21.6312ZM11.1288 21.1059L11.2183 20.2774L11.1259 20.2674L11.0337 20.278L11.1288 21.1059ZM4.4349 19.1397L4.30808 18.316L4.29448 18.3181L4.28096 18.3207L4.4349 19.1397ZM13.6472 21.3672L13.4927 22.1861C13.9276 22.2681 14.3508 21.9958 14.4564 21.566C14.562 21.1362 14.3132 20.6988 13.8897 20.5699L13.6472 21.3672ZM4.63025 19.1096L4.50417 18.2859L4.50344 18.286L4.63025 19.1096ZM9.66705 19.5514L9.35238 20.323H9.35238L9.66705 19.5514ZM3.88885 18.3895C2.99554 18.5346 2.1086 18.6875 1.45021 18.9829C1.10691 19.1369 0.76376 19.355 0.506964 19.6859C0.238255 20.0321 0.11027 20.4422 0.11027 20.8886H1.77694C1.77694 20.7757 1.80323 20.734 1.82358 20.7078C1.85584 20.6662 1.93654 20.5914 2.13237 20.5035C2.55225 20.3152 3.20476 20.1891 4.15614 20.0346L3.88885 18.3895ZM0.11027 20.8886C0.11027 21.5042 0.450009 21.9876 0.891797 22.3083C1.32089 22.6197 1.88605 22.8155 2.51753 22.9207C3.78782 23.1324 5.54572 23.0139 7.68418 22.4357L7.24918 20.8268C5.2525 21.3666 3.74886 21.4362 2.7914 21.2767C2.309 21.1964 2.01874 21.0668 1.87086 20.9595C1.73569 20.8614 1.77694 20.8325 1.77694 20.8886H0.11027ZM7.68418 22.4357C9.52271 21.9386 10.3513 22.0341 11.2239 21.9338L11.0337 20.278C10.415 20.3491 9.2434 20.2876 7.24918 20.8268L7.68418 22.4357ZM4.28096 18.3207C4.15074 18.3452 4.01981 18.3682 3.88885 18.3895L4.15614 20.0346C4.30138 20.011 4.44585 19.9855 4.58883 19.9587L4.28096 18.3207ZM13.8016 20.5483C12.5844 20.3187 11.6548 20.3245 11.2183 20.2774L11.0393 21.9344C11.756 22.0118 12.3265 21.9661 13.4927 22.1861L13.8016 20.5483ZM4.75633 19.9333C5.18821 19.8672 5.96727 19.8069 6.83896 19.8469C7.71684 19.8872 8.62597 20.0268 9.35238 20.323L9.98172 18.7798C9.00792 18.3826 7.8868 18.2266 6.91541 18.182C5.93782 18.1371 5.04858 18.2025 4.50417 18.2859L4.75633 19.9333ZM9.35238 20.323C10.3852 20.7442 11.1613 21.1271 11.7866 21.4399C12.3842 21.7389 12.9268 22.0191 13.4046 22.1644L13.8897 20.5699C13.5818 20.4762 13.1969 20.2819 12.5322 19.9494C11.8952 19.6307 11.0741 19.2252 9.98172 18.7798L9.35238 20.323ZM4.56171 19.9633L4.75706 19.9332L4.50344 18.286L4.30808 18.316L4.56171 19.9633Z" fill="#4338CA"/>
</g>
<path id="Vector 52" d="M4.02246 19.212C4.16056 19.1896 4.29826 19.1654 4.43486 19.1397L4.63022 19.1096C5.60651 18.9602 7.96681 18.8581 9.66702 19.5514C11.7923 20.4181 12.8613 21.1281 13.6471 21.3672" stroke="#4338CA" stroke-width="1.66667" stroke-linecap="round"/>
<rect id="Rectangle 47" x="9.88634" y="6.84776" width="2.31481" height="2.31481" rx="1.15741" fill="#F97316" stroke="#F97316" stroke-width="1.38889"/>
</g>
</svg>
