<svg width="31" height="31" viewBox="0 0 31 31" fill="none" xmlns="http://www.w3.org/2000/svg">
<g id="Group 52">
<g id="Group 48">
<path id="Vector 24" d="M29.1664 12.1548C27.1192 10.8841 23.7841 10.6146 22.3725 10.6386C20.9608 10.6146 17.6257 10.8841 15.5785 12.1548C15.2072 14.4171 15.2176 20.9245 18.2292 28.855H22.3725H26.5158C29.5274 20.9245 29.5377 14.4171 29.1664 12.1548Z" fill="#E0E7FF" stroke="#4338CA" stroke-width="1.8" stroke-linecap="round"/>
<rect id="Rectangle 44" x="18.5892" y="5.89805" width="7.56655" height="4.46762" stroke="#4338CA" stroke-width="1.8"/>
<path id="Line 6" d="M22.2449 2.04639L22.2449 5.03185" stroke="#F97316" stroke-width="1.8"/>
<path id="Line 7" d="M19.8772 2.06152H27.0557" stroke="#F97316" stroke-width="1.8"/>
</g>
<g id="Group 51">
<g id="Rectangle 40">
<mask id="path-5-inside-1_5142_1050" fill="white">
<path d="M3.3396 23.063H12.2466V29.0114C12.2466 29.6263 11.7482 30.1248 11.1333 30.1248H4.45298C3.83807 30.1248 3.3396 29.6263 3.3396 29.0114V23.063Z"/>
</mask>
<path d="M3.3396 23.063H12.2466V29.0114C12.2466 29.6263 11.7482 30.1248 11.1333 30.1248H4.45298C3.83807 30.1248 3.3396 29.6263 3.3396 29.0114V23.063Z" stroke="#4338CA" stroke-width="3.6" mask="url(#path-5-inside-1_5142_1050)"/>
</g>
<path id="Rectangle 39" d="M1.03486 2.01305C1.02042 1.88644 1.11943 1.77549 1.24686 1.77549H14.339C14.4664 1.77549 14.5654 1.88644 14.551 2.01305L12.047 23.966C12.0347 24.0738 11.9435 24.1552 11.835 24.1552H3.75087C3.64238 24.1552 3.55117 24.0738 3.53887 23.966L1.03486 2.01305Z" fill="#E0E7FF" stroke="#4338CA" stroke-width="1.8"/>
</g>
</g>
</svg>
