<svg width="14" height="13" viewBox="0 0 14 13" fill="none" xmlns="http://www.w3.org/2000/svg">
<g id="Group">
<path id="Vector" d="M7.73556 7.05371C7.53291 7.29979 7.33026 7.53138 7.14209 7.74851C8.44484 9.26838 10.6306 11.816 10.6595 11.8449C11.0069 12.1923 11.557 12.1923 11.8899 11.8449C12.2373 11.4975 12.2373 10.9475 11.8899 10.6146C11.8609 10.5856 9.25543 8.34198 7.73556 7.05371Z" fill="#EA580C"/>
<path id="Vector_2" d="M4.36324 5.751C4.39219 5.751 4.42114 5.751 4.45009 5.751C5.08699 5.79443 5.68047 6.0984 6.11471 6.5616C6.28841 6.41685 6.46211 6.2721 6.63581 6.11288C6.14366 5.67863 5.82521 5.07068 5.78179 4.40483C5.78179 4.37588 5.78179 4.34693 5.78179 4.31798C5.75284 3.13104 4.95672 2.33491 4.88434 2.26254L2.91575 0.264996C2.771 0.120247 2.52493 0.105772 2.38018 0.250521C2.22095 0.395271 2.22095 0.641345 2.3657 0.786095L4.36324 2.78364C4.49352 2.91391 4.50799 3.14551 4.37772 3.29026C4.24745 3.43501 4.01585 3.43501 3.8711 3.30474L1.87355 1.30719C1.7288 1.16244 1.48273 1.14797 1.33798 1.29272C1.17875 1.43747 1.17875 1.68354 1.3235 1.82829L3.33552 3.82583C3.4658 3.95611 3.48027 4.18771 3.35 4.33246C3.21972 4.47721 2.98812 4.47721 2.84337 4.34693L0.845831 2.33491C0.701081 2.19017 0.455007 2.17569 0.310257 2.32044C0.151033 2.46519 0.151033 2.71126 0.295782 2.85601L2.29333 4.85356C2.38018 4.92593 3.1763 5.72205 4.36324 5.751Z" fill="#EA580C"/>
<path id="Vector_3" d="M12.5414 1.26389L12.527 1.24941C12.0638 0.800691 11.4703 0.569092 10.8623 0.569092C10.2544 0.569092 9.64644 0.800691 9.18324 1.26389C6.99752 3.44961 8.12657 5.20108 7.1278 6.19985C7.1278 6.19985 1.96024 10.6292 1.91682 10.6726C1.58389 11.0055 1.58389 11.5411 1.90234 11.8885C1.90234 11.8885 1.90234 11.8885 1.91682 11.903C1.91682 11.903 1.91682 11.903 1.93129 11.9175C2.10499 12.0767 2.30764 12.1491 2.52476 12.1491C2.74189 12.1491 2.97349 12.0622 3.14719 11.8885C3.17614 11.8596 7.61995 6.67752 7.61995 6.67752C8.63319 5.66428 10.3702 6.79332 12.5559 4.62208C13.4534 3.68121 13.4534 2.19029 12.5414 1.26389Z" fill="#EA580C"/>
</g>
</svg>
