<svg width="21" height="22" viewBox="0 0 21 22" fill="none" xmlns="http://www.w3.org/2000/svg">
<g id="Group 8">
<path id="Vector" d="M11.8386 8.21087H14.2397C14.37 8.21087 14.4751 8.10574 14.4751 7.97543C14.4751 7.84513 14.37 7.73999 14.2397 7.73999H12.345H12.1117L11.9466 7.57497L9.8733 5.50163L10.2656 5.10937L9.8733 5.50163C9.78248 5.41081 9.658 5.3592 9.52803 5.3592H5.62048H5.55183C5.48014 5.36985 5.41182 5.39648 5.35187 5.43736L5.35012 5.43854L5.35012 5.43854L2.9063 7.09141C2.90629 7.09141 2.90627 7.09142 2.90626 7.09143C2.80591 7.15934 2.7811 7.29403 2.84809 7.39199L2.84852 7.39263C2.91383 7.48842 3.04421 7.5152 3.14194 7.45294L3.14232 7.4527L5.27873 6.09413L5.28106 6.09264L5.28107 6.09265C5.52891 5.93674 5.81869 5.84742 6.11962 5.84327L6.11938 5.84328L6.12764 6.40663L6.12003 5.84327L11.8386 8.21087ZM11.8386 8.21087L10.7512 7.27949L10.1763 6.78703L9.86958 7.47915L9.00025 9.44106C8.83211 9.81691 8.89087 10.2588 9.1582 10.5776L10.9365 12.7336C10.9367 12.7338 10.9369 12.7341 10.9371 12.7343C11.0541 12.878 11.0807 13.0689 11.0116 13.2321L11.0107 13.2342L9.3686 17.1569C9.36857 17.157 9.36854 17.157 9.3685 17.1571L11.8386 8.21087ZM9.81845 13.8261L9.81873 13.8253L9.28364 13.6489L9.81814 13.827C9.81825 13.8267 9.81835 13.8264 9.81845 13.8261ZM8.79164 16.9407L8.25617 16.7655L8.79125 16.9419L8.79147 16.9412C8.79153 16.941 8.79158 16.9409 8.79164 16.9407ZM8.96337 17.3235C8.9633 17.3235 8.96323 17.3234 8.96317 17.3234L8.74494 17.8429L8.96372 17.3237C8.96361 17.3236 8.96349 17.3236 8.96337 17.3235ZM7.38111 6.38824L6.78196 6.39703L6.84859 6.20421L7.38111 6.38824Z" fill="#A5B4FC" stroke="#A5B4FC" stroke-width="1.12683"/>
<path id="Vector_2" d="M6.50327 12.7884L6.69485 12.5034L7.40097 12.9966L7.08553 13.374L7.08547 13.3739L7.07989 13.3808C6.96537 13.5223 6.79106 13.6055 6.60333 13.6055H2.793C2.71263 13.6055 2.64691 13.5398 2.64691 13.4594C2.64691 13.3826 2.70561 13.3181 2.78295 13.3113C2.78307 13.3113 2.78319 13.3113 2.78331 13.3113L6.08266 13.0354L6.35229 13.0129L6.50327 12.7884Z" fill="#A5B4FC" stroke="#A5B4FC" stroke-width="1.12683"/>
<path id="Vector_3" d="M20.4334 19.7978C20.4334 21.0144 19.448 21.9999 18.2313 21.9999H2.29364C1.2977 21.9999 0.490967 21.1931 0.490967 20.1972C0.490967 19.238 1.24252 18.4471 2.20167 18.3971L18.1209 17.5983C19.3797 17.5352 20.4334 18.539 20.4334 19.7978Z" fill="#A5B4FC"/>
<path id="Vector_4" d="M16.6074 8.07793L18.912 5.56312C19.1721 5.27932 19.5926 5.20048 19.9368 5.37392C20.2837 5.54735 20.4729 5.93101 20.3993 6.30942L18.255 17.5906L16.3289 17.6905L18.4022 8.37488L17.5166 9.06336C17.2644 9.25782 16.9122 9.25256 16.6678 9.04497C16.3762 8.79795 16.3473 8.35911 16.6074 8.07793Z" fill="#A5B4FC"/>
<path id="Vector_5" d="M10.3242 4.28858C11.5085 4.28858 12.4685 3.32855 12.4685 2.14429C12.4685 0.960032 11.5085 0 10.3242 0C9.13996 0 8.17993 0.960032 8.17993 2.14429C8.17993 3.32855 9.13996 4.28858 10.3242 4.28858Z" fill="#A5B4FC"/>
</g>
</svg>
