<svg width="152" height="152" viewBox="0 0 152 152" fill="none" xmlns="http://www.w3.org/2000/svg">
<g id="image-mandala">
<path id="Vector" d="M28.8873 29.5204C27.0454 29.6873 25.2301 29.7981 23.4295 30.0241C19.4621 30.5204 15.7296 31.8217 12.1226 33.5026C11.9291 33.5927 11.7607 33.9472 11.7489 34.1865C11.4638 39.7949 12.2747 45.229 14.3928 50.4475C14.4844 50.672 14.5598 50.9024 14.6602 51.1801C14.4327 51.2924 14.2451 51.3958 14.0487 51.48C8.89077 53.6808 4.52457 56.9732 0.749191 61.0927C0.416851 61.4561 0.533539 61.7308 0.664998 62.0838C2.67233 67.4899 5.62794 72.2903 9.83167 76.3789C9.20834 77.0583 8.59241 77.7126 7.99567 78.3832C4.69443 82.0921 2.33851 86.352 0.690108 91.0151C0.611824 91.2381 0.722604 91.6384 0.890989 91.8216C4.66341 95.9441 9.07393 99.1818 14.2451 101.346C14.381 101.403 14.5169 101.461 14.6484 101.527C14.6883 101.548 14.7134 101.595 14.7326 101.616C14.1934 103.284 13.5997 104.925 13.1359 106.601C12.0414 110.551 11.7563 114.594 11.966 118.673C11.9793 118.923 12.2644 119.265 12.5096 119.382C17.604 121.802 22.9643 123.104 28.617 123.147C28.7824 123.147 28.9478 123.19 29.097 123.212C29.23 124.865 29.3023 126.485 29.5017 128.091C30.0158 132.228 31.2757 136.153 33.0674 139.906C33.1737 140.129 33.5903 140.312 33.8724 140.327C39.6078 140.609 45.1572 139.752 50.4687 137.515C50.5558 137.478 50.6504 137.458 50.7848 137.419C51.2353 138.361 51.6651 139.293 52.1215 140.21C54.247 144.473 57.2085 148.09 60.6885 151.312C61.0371 151.634 61.3118 151.553 61.6796 151.417C67.0163 149.44 71.7709 146.551 75.7693 142.467C75.8358 142.399 75.9185 142.351 75.9628 142.317C77.4369 143.551 78.8475 144.81 80.3394 145.963C83.4634 148.378 86.9788 150.079 90.6803 151.408C90.8797 151.479 91.2446 151.355 91.4174 151.195C95.5753 147.387 98.8573 142.952 101.02 137.72C101.083 137.566 101.165 137.422 101.193 137.365C103.485 138.032 105.704 138.758 107.963 139.314C111.333 140.142 114.779 140.255 118.235 140.142C118.672 140.128 118.869 139.959 119.047 139.572C121.417 134.457 122.771 129.112 122.765 123.45C122.765 123.285 122.795 123.118 122.811 122.948C124.294 122.838 125.738 122.766 127.174 122.618C131.53 122.174 135.632 120.84 139.579 118.992C139.774 118.901 139.948 118.549 139.96 118.31C140.24 112.601 139.407 107.074 137.208 101.774C137.153 101.641 137.113 101.501 137.042 101.293C137.421 101.124 137.772 100.966 138.124 100.81C143.081 98.6043 147.311 95.4079 150.921 91.3785C151.091 91.1894 151.138 90.7433 151.046 90.4878C149.112 85.1364 146.225 80.3773 142.158 76.3641C142.073 76.2799 142.005 76.1795 141.934 76.0908C142.893 74.9963 143.859 73.9506 144.76 72.8516C147.552 69.4455 149.535 65.5904 151.055 61.4753C151.221 61.0262 150.996 60.846 150.77 60.6009C146.946 56.4547 142.491 53.1993 137.263 51.0354C137.155 50.9911 137.053 50.9276 136.941 50.8699C137.364 49.6322 137.803 48.4357 138.187 47.2201C139.568 42.8495 139.974 38.3592 139.741 33.801C139.728 33.5513 139.429 33.2131 139.178 33.0949C134.152 30.7109 128.862 29.4259 123.289 29.3432C123.069 29.3402 122.851 29.3181 122.576 29.3004C122.513 28.2339 122.465 27.1852 122.384 26.1409C122.016 21.3729 120.688 16.8649 118.62 12.5711C118.514 12.351 118.095 12.1753 117.813 12.1605C112.05 11.8813 106.482 12.7602 101.148 15.0053C101.082 15.0334 101.008 15.0422 100.908 15.0674C100.358 13.9448 99.8307 12.8133 99.2562 11.7056C97.172 7.67906 94.3301 4.24193 90.9861 1.20952C90.7985 1.03966 90.3539 0.986496 90.0998 1.07806C84.7218 3.01746 79.9509 5.9317 75.92 10.0128C75.8535 10.0808 75.7693 10.1325 75.7073 10.1812C74.3381 9.02615 73.0205 7.8504 71.635 6.75885C68.452 4.25523 64.8701 2.47241 61.0725 1.11057C60.8495 1.03079 60.4477 1.14157 60.2631 1.31143C56.1347 5.11044 52.8556 9.52097 50.705 14.7306C50.6415 14.8857 50.5529 15.0289 50.4894 15.1516C48.674 14.5888 46.9104 13.9861 45.1143 13.4972C41.2813 12.4529 37.3627 12.1945 33.4056 12.3599C32.9359 12.3791 32.7912 12.6287 32.6257 12.9862C30.261 18.1042 28.9405 23.46 28.9257 29.1172C28.9257 29.2605 28.8976 29.4038 28.8843 29.5204H28.8873ZM118.987 119.263C118.997 119.432 119.002 119.652 119.024 119.871C119.554 125.386 118.81 130.716 116.742 135.862C116.525 136.402 116.262 136.599 115.666 136.593C110.384 136.546 105.38 135.367 100.659 132.993C100.166 132.745 99.6683 132.503 99.1321 132.239C99.0375 132.556 98.9681 132.789 98.8972 133.024C97.302 138.278 94.5931 142.872 90.7808 146.825C90.3598 147.262 90.0186 147.343 89.4514 147.099C84.8769 145.139 80.9243 142.319 77.5891 138.631C77.0529 138.039 76.5418 137.425 75.9998 136.798C75.7619 137.089 75.5773 137.317 75.3897 137.544C71.9363 141.746 67.7149 144.928 62.7416 147.132C62.108 147.412 61.7151 147.346 61.2262 146.835C57.4242 142.876 54.6813 138.303 53.0919 133.045C53.0255 132.825 52.9265 132.614 52.8364 132.38C52.4627 132.574 52.157 132.729 51.8527 132.89C47.0463 135.438 41.9194 136.726 36.4824 136.82C35.8546 136.831 35.5178 136.673 35.2712 136.061C33.577 131.853 32.7217 127.488 32.7675 122.954C32.7794 121.781 32.8857 120.608 32.9522 119.364C32.5637 119.385 32.2018 119.391 31.8429 119.424C26.425 119.904 21.1977 119.121 16.152 117.082C15.6306 116.871 15.4681 116.596 15.4726 116.048C15.508 110.868 16.6498 105.954 18.9304 101.303C19.2184 100.716 19.5153 100.135 19.8225 99.52C19.3691 99.3782 18.9954 99.2645 18.6217 99.1449C13.4963 97.4994 8.9986 94.8126 5.14051 91.0506C4.7801 90.699 4.73431 90.4346 4.92633 89.9767C7.06364 84.8853 10.2704 80.5915 14.5051 77.0598C14.7592 76.8486 15.0132 76.6373 15.2968 76.401C14.8995 76.0731 14.576 75.8087 14.2584 75.5399C10.1226 72.0525 6.9765 67.8311 4.84066 62.8563C4.65751 62.4295 4.69739 62.1651 5.03416 61.8342C8.66921 58.2567 12.8729 55.5921 17.6956 53.9171C18.3543 53.6882 19.0175 53.4681 19.7058 53.2347C19.5035 52.8536 19.341 52.5508 19.18 52.248C16.6306 47.4151 15.3234 42.2705 15.2673 36.8024C15.2614 36.2204 15.4253 35.9412 15.9777 35.7167C20.4459 33.9073 25.0809 33.0684 29.8976 33.2293C30.8208 33.2604 31.7439 33.315 32.7217 33.3623C32.7025 33.0019 32.6981 32.7109 32.6715 32.4214C32.1678 26.9533 32.9374 21.6757 34.9861 16.5784C35.1958 16.057 35.4661 15.8901 36.0171 15.8945C40.3493 15.9314 44.5309 16.7217 48.5382 18.3686C49.8926 18.9254 51.2072 19.5813 52.5794 20.209C52.6636 19.9402 52.7448 19.6861 52.8217 19.4321C54.4154 14.2062 57.1125 9.63176 60.9027 5.69241C61.3561 5.22124 61.7106 5.1651 62.297 5.41768C67.3368 7.60078 71.5981 10.8119 75.112 15.0245C75.2937 15.2417 75.4754 15.4588 75.6881 15.7128C75.9407 15.4071 76.143 15.1634 76.3439 14.9182C79.8298 10.6731 84.1015 7.47966 89.1383 5.28917C89.6597 5.06171 89.9506 5.14146 90.3347 5.5329C93.5975 8.8681 96.0967 12.6908 97.7673 17.0481C98.1513 18.0481 98.4837 19.0672 98.8529 20.1174C99.1587 19.9579 99.4186 19.825 99.6771 19.6876C104.59 17.0658 109.828 15.7291 115.396 15.673C115.848 15.6685 116.151 15.735 116.355 16.2342C118.257 20.884 119.146 25.7037 118.897 30.7272C118.858 31.5041 118.799 32.2811 118.745 33.1289C119.211 33.1008 119.622 33.0846 120.033 33.0506C125.377 32.5957 130.529 33.3977 135.509 35.3814C136.093 35.6133 136.264 35.9206 136.252 36.5247C136.175 40.8776 135.394 45.0872 133.713 49.1093C133.175 50.3958 132.543 51.6439 131.936 52.9452C132.106 53.0117 132.258 53.0826 132.416 53.1299C137.806 54.7236 142.513 57.4724 146.538 61.4014C146.92 61.7736 146.98 62.0587 146.778 62.5388C145.092 66.5327 142.747 70.0836 139.68 73.147C138.661 74.1647 137.57 75.1115 136.474 76.1248C136.735 76.3375 136.98 76.5369 137.224 76.7378C141.459 80.2325 144.671 84.4909 146.838 89.541C147.038 90.0063 147.042 90.315 146.652 90.6961C143.11 94.145 139.054 96.7712 134.39 98.4359C133.613 98.7136 132.828 98.9706 132.053 99.2364C132.075 99.3369 132.077 99.3871 132.097 99.4285C132.199 99.6249 132.308 99.8169 132.413 100.012C135.037 104.92 136.401 110.149 136.444 115.722C136.449 116.264 136.299 116.548 135.771 116.76C132.035 118.264 128.17 119.146 124.142 119.252C122.453 119.296 120.762 119.26 118.991 119.26L118.987 119.263Z" fill="#A5B4FC"/>
<path id="Vector_2" d="M24.2729 22.2917C22.7855 22.3035 21.5463 23.5649 21.5684 25.045C21.592 26.5649 22.7988 27.7569 24.3098 27.7539C25.7899 27.7509 27.0454 26.5013 27.0498 25.0287C27.0542 23.4793 25.8356 22.2799 24.2714 22.2917H24.2729Z" fill="#A5B4FC"/>
<path id="Vector_3" d="M47.9546 140.624C46.4362 140.614 45.2324 141.78 45.1984 143.296C45.1645 144.81 46.4022 146.074 47.9295 146.085C49.414 146.095 50.6606 144.882 50.6902 143.396C50.7212 141.863 49.5085 140.634 47.9546 140.624Z" fill="#A5B4FC"/>
<path id="Vector_4" d="M103.778 11.874C105.296 11.874 106.482 10.6983 106.499 9.1769C106.515 7.66291 105.265 6.40593 103.75 6.41184C102.261 6.41775 101.025 7.64667 101.017 9.12669C101.01 10.6643 102.225 11.874 103.778 11.874Z" fill="#A5B4FC"/>
<path id="Vector_5" d="M72.9082 3.66877C72.9481 5.16061 74.2095 6.36441 75.691 6.32601C77.2257 6.28613 78.4073 5.03653 78.3704 3.49152C78.3349 1.99525 77.0883 0.806214 75.592 0.840187C74.0529 0.875636 72.8668 2.12524 72.9097 3.66877H72.9082Z" fill="#A5B4FC"/>
<path id="Vector_6" d="M48.0659 6.35112C46.5091 6.38362 45.3791 7.59186 45.419 9.18119C45.4559 10.673 46.6996 11.8443 48.2121 11.8118C49.7217 11.7793 50.9284 10.4899 50.8767 8.96257C50.8265 7.46778 49.5917 6.31863 48.0659 6.35112Z" fill="#A5B4FC"/>
<path id="Vector_7" d="M78.8051 148.95C78.8199 147.418 77.588 146.17 76.0651 146.173C74.5644 146.176 73.3503 147.383 73.337 148.882C73.3252 150.424 74.5512 151.671 76.0696 151.661C77.5703 151.65 78.7888 150.442 78.8036 148.95H78.8051Z" fill="#A5B4FC"/>
<path id="Vector_8" d="M11.4671 48.3471C11.4701 46.8523 10.2589 45.616 8.77443 45.5983C7.24715 45.5806 6.00198 46.8109 5.99903 48.3412C5.99607 49.8537 7.25453 51.1018 8.77591 51.09C10.2618 51.0797 11.4656 49.8522 11.4686 48.3456L11.4671 48.3471Z" fill="#A5B4FC"/>
<path id="Vector_9" d="M140.24 104.151C140.235 105.651 141.43 106.877 142.927 106.908C144.435 106.941 145.704 105.684 145.703 104.161C145.703 102.635 144.465 101.4 142.935 101.399C141.471 101.399 140.245 102.65 140.239 104.149L140.24 104.151Z" fill="#A5B4FC"/>
<path id="Vector_10" d="M8.67533 101.22C7.13475 101.213 5.92356 102.43 5.92799 103.981C5.93242 105.49 7.12737 106.679 8.64579 106.688C10.1908 106.696 11.4094 105.481 11.4035 103.938C11.399 102.453 10.1686 101.227 8.67533 101.222V101.22Z" fill="#A5B4FC"/>
<path id="Vector_11" d="M127.408 130.193C129.003 130.144 130.18 128.951 130.148 127.412C130.117 125.929 128.85 124.711 127.359 124.737C125.848 124.762 124.638 126.042 124.666 127.584C124.693 129.051 125.94 130.236 127.406 130.191L127.408 130.193Z" fill="#A5B4FC"/>
<path id="Vector_12" d="M5.89055 76.3686C5.84033 74.8177 4.60403 73.6729 3.03982 73.7305C1.56128 73.7837 0.367808 75.0717 0.422459 76.5532C0.478588 78.0746 1.76363 79.2548 3.29683 79.1927C4.80491 79.1322 5.94077 77.8959 5.89055 76.3686Z" fill="#A5B4FC"/>
<path id="Vector_13" d="M148.527 73.2978C146.986 73.3066 145.796 74.5282 145.81 76.088C145.824 77.5887 147.028 78.76 148.558 78.7629C150.06 78.7659 151.268 77.5665 151.283 76.0584C151.298 74.5371 150.053 73.2904 148.527 73.2993V73.2978Z" fill="#A5B4FC"/>
<path id="Vector_14" d="M129.83 24.7437C129.846 23.2179 128.67 22.0097 127.152 21.9905C125.641 21.9713 124.411 23.113 124.375 24.5694C124.337 26.1351 125.523 27.4275 127.016 27.4482C128.591 27.4689 129.815 26.2932 129.83 24.7437Z" fill="#A5B4FC"/>
<path id="Vector_15" d="M24.6498 125.067C23.0708 125.061 21.8596 126.249 21.8685 127.796C21.8773 129.298 23.1033 130.524 24.5996 130.525C26.1076 130.525 27.307 129.332 27.3321 127.806C27.3572 126.282 26.1741 125.073 24.6498 125.067Z" fill="#A5B4FC"/>
<path id="Vector_16" d="M145.767 48.582C145.775 47.0178 144.577 45.808 143.022 45.8095C141.516 45.811 140.313 47.0192 140.301 48.5377C140.291 50.0177 141.545 51.2776 143.023 51.2702C144.574 51.2628 145.759 50.1004 145.766 48.582H145.767Z" fill="#A5B4FC"/>
<path id="Vector_17" d="M100.838 143.411C100.838 144.969 102.02 146.147 103.593 146.148C105.102 146.151 106.294 144.961 106.305 143.441C106.315 141.931 105.058 140.674 103.544 140.68C102.063 140.686 100.84 141.919 100.84 143.411H100.838Z" fill="#A5B4FC"/>
<path id="Vector_18" d="M114.94 29.1305C114.928 26.2059 114.48 23.3522 113.665 20.5428C113.48 19.9077 113.195 19.7585 112.582 19.8264C105.628 20.596 99.5811 23.3655 94.6596 28.321C87.518 35.5129 84.8002 44.2379 86.2152 54.248C86.4131 55.6526 86.8592 57.0219 87.1797 58.4088C87.2728 58.8121 87.4677 58.9613 87.9064 58.9081C98.0553 57.6866 105.839 52.7945 111.025 43.938C113.652 39.4507 114.954 34.3046 114.94 29.129V29.1305ZM90.0467 55.1046C89.9492 54.7324 89.8901 54.5493 89.8547 54.3632C89.3687 51.8078 89.2816 49.2392 89.5622 46.6529C90.7823 35.4213 99.0479 26.2236 110.049 23.844C110.612 23.7229 110.807 23.8322 110.924 24.4231C113.313 36.4242 106.46 48.9689 94.9727 53.5035C93.3863 54.1298 91.7246 54.5655 90.0467 55.1061V55.1046Z" fill="#A5B4FC"/>
<path id="Vector_19" d="M36.7322 123.361C36.7824 126.285 37.2093 129.143 38.0409 131.948C38.2255 132.569 38.4958 132.738 39.1177 132.665C47.3922 131.711 54.2251 128.053 59.4037 121.543C64.7462 114.827 66.7255 107.114 65.5261 98.6177C65.3104 97.0918 64.854 95.6 64.5187 94.0904C64.4286 93.6857 64.2425 93.5498 63.7979 93.5897C49.3567 94.8748 37.8429 106.646 36.8563 121.152C36.806 121.889 36.7721 122.626 36.7307 123.363L36.7322 123.361ZM61.6857 97.5645C65.0874 112.639 54.2044 126.71 40.9625 128.661C37.7425 114.345 47.4601 100.086 61.6857 97.5645Z" fill="#A5B4FC"/>
<path id="Vector_20" d="M28.6452 37.2175C25.8196 37.1806 22.9452 37.6562 20.1137 38.4745C19.5421 38.6399 19.3338 38.8482 19.4121 39.4848C20.6794 49.7696 25.7517 57.5862 34.7972 62.6201C42.0378 66.648 49.7584 67.3053 57.7286 65.0203C58.3239 64.8504 58.5189 64.6304 58.4598 63.9612C57.4347 52.161 48.6595 41.6059 37.2122 38.4095C34.4442 37.637 31.6437 37.1909 28.6437 37.216L28.6452 37.2175ZM23.3367 41.3296C30.6983 39.9264 37.484 41.1967 43.6419 45.3753C49.5797 49.4048 53.1099 55.059 54.5795 62.0647C40.7897 65.2419 26.1401 56.2451 23.3367 41.3296Z" fill="#A5B4FC"/>
<path id="Vector_21" d="M103.559 86.2028C99.679 86.2146 96.7721 86.6415 93.9199 87.4849C93.3424 87.6562 93.1681 87.8719 93.2449 88.5114C94.3985 98.0932 98.9272 105.626 107.107 110.747C114.783 115.552 123.083 116.494 131.78 113.957C132.294 113.806 132.34 113.546 132.296 113.1C131.595 106.189 128.827 100.217 124.006 95.2469C118.179 89.2396 110.979 86.3608 103.559 86.2043V86.2028ZM128.336 111.088C114.456 114.305 99.6406 104.919 97.2138 90.4272C111.008 87.1156 125.771 96.557 128.336 111.088Z" fill="#A5B4FC"/>
<path id="Vector_22" d="M121.051 55.7471C111.272 56.2213 102.519 61.2625 96.7159 71.2696C96.3392 71.921 96.3776 72.2799 97.0024 72.7703C108.432 81.7302 124.263 81.3816 135.204 71.8959C137.926 69.5355 140.128 66.7557 141.862 63.5933C142.171 63.0306 142.112 62.7337 141.61 62.3334C136.205 58.041 129.671 55.7442 121.049 55.7457L121.051 55.7471ZM137.478 63.8533C128.745 77.0597 111.575 78.7643 101.039 71.1485C109.221 58.4605 126.253 55.9362 137.478 63.8533Z" fill="#A5B4FC"/>
<path id="Vector_23" d="M62.303 9.92871C61.3223 11.3925 60.2086 12.8651 59.2913 14.4515C50.9607 28.8662 56.3475 47.6721 70.9941 55.4637C71.545 55.7576 71.8449 55.7428 72.2599 55.2347C84.1015 40.7122 79.3735 18.4558 62.6368 9.99961C62.5955 9.97893 62.5438 9.97894 62.303 9.92871ZM63.4625 14.6538C76.5301 23.3744 78.403 40.3489 70.771 51.0664C58.3475 43.204 55.3667 26.1144 63.4625 14.6538Z" fill="#A5B4FC"/>
<path id="Vector_24" d="M9.50977 89.6266C11.2054 91.0933 13.0326 92.3282 15.0089 93.3355C26.9406 99.4181 40.7024 97.232 50.1527 87.7463C52.1083 85.7833 53.6962 83.5411 55.0433 81.1202C55.3682 80.5353 55.3254 80.2162 54.7892 79.7938C50.3344 76.2813 45.3094 74.1101 39.6744 73.4793C30.3674 72.438 22.2864 75.1913 15.449 81.5692C13.1109 83.7509 11.2173 86.2885 9.74019 89.1288C9.66338 89.278 9.59839 89.4331 9.50977 89.6266ZM14.229 88.6222C22.985 75.4113 40.2623 73.7349 50.6534 81.3551C42.5384 94.0401 25.3705 96.526 14.229 88.6222Z" fill="#A5B4FC"/>
<path id="Vector_25" d="M89.2374 142.563C90.9419 140.606 92.3141 138.46 93.4219 136.142C100.237 121.889 94.7764 104.824 80.9496 97.1804C79.8742 96.5851 80.0884 96.4699 79.2627 97.5216C67.7372 112.192 72.3087 133.789 88.747 142.331C88.8962 142.408 89.0498 142.476 89.2359 142.563H89.2374ZM80.9392 101.427C93.8266 109.641 96.0658 127.098 88.2241 137.817C75.4903 129.49 73.0709 112.518 80.9392 101.427Z" fill="#A5B4FC"/>
<path id="Vector_26" d="M91.4367 73.1573C91.3421 73.0318 91.2417 72.8678 91.1132 72.7319C88.5357 70.0112 86.4708 66.9433 84.9006 63.5446C84.7204 63.1546 84.5092 62.9907 84.0779 62.9789C80.3306 62.8843 76.7133 62.1266 73.1919 60.8489C72.9468 60.7603 72.5051 60.8608 72.3087 61.0424C69.5392 63.6007 66.4536 65.676 63.0445 67.2845C62.8274 67.3864 62.6073 67.7424 62.5984 67.9876C62.4581 71.732 61.7255 75.3552 60.4242 78.8632C60.2824 79.2458 60.3193 79.4792 60.5955 79.7702C63.1878 82.5086 65.2557 85.6016 66.8642 89.0121C66.9691 89.2337 67.3147 89.4686 67.5569 89.4774C71.3264 89.6177 74.9703 90.3533 78.5123 91.6413C78.756 91.7299 79.1977 91.6251 79.3941 91.4434C82.1666 88.8896 85.2492 86.8069 88.6627 85.2087C88.8695 85.1127 89.0999 84.8025 89.1073 84.5854C89.2388 80.7908 89.964 77.1173 91.3022 73.565C91.3451 73.4498 91.3776 73.3316 91.4337 73.1559L91.4367 73.1573ZM87.3348 74.0066C87.2979 74.1455 87.2802 74.2164 87.258 74.2873C86.4471 76.9046 85.9228 79.5767 85.6569 82.3048C85.6362 82.5204 85.4339 82.7996 85.2374 82.906C82.849 84.1999 80.6053 85.7006 78.5197 87.442C78.3469 87.5868 78.0087 87.6813 77.8033 87.6178C75.183 86.8084 72.5066 86.3076 69.7829 86.0211C69.5672 85.9989 69.3102 85.7981 69.1802 85.6075C67.6544 83.3786 66.1419 81.1394 64.6486 78.8883C64.5098 78.6801 64.4433 78.3492 64.4906 78.1025C64.9809 75.497 65.492 72.8944 66.0282 70.2992C66.0828 70.0319 66.2822 69.7246 66.5067 69.571C68.6913 68.0674 70.8907 66.5859 73.1004 65.1206C73.3367 64.964 73.7074 64.8163 73.9452 64.8902C76.5419 65.6967 79.1962 66.1797 81.8948 66.4721C82.1282 66.4972 82.4044 66.7158 82.5462 66.9241C84.0602 69.1308 85.552 71.3538 87.0498 73.5724C87.1561 73.7304 87.258 73.8914 87.3363 74.0111L87.3348 74.0066Z" fill="#A5B4FC"/>
<path id="Vector_27" d="M89.1855 89.2338C87.0378 90.6857 84.9714 92.0816 82.8193 93.5365C84.1516 94.4271 85.351 95.145 86.4618 95.9825C94.791 102.261 99.4585 110.591 100.241 121.008C100.399 123.104 100.191 125.231 100.074 127.341C100.042 127.928 100.201 128.218 100.689 128.497C104.522 130.699 108.63 132.027 113.027 132.478C113.535 132.53 113.764 132.398 113.916 131.894C115.21 127.605 115.485 123.249 114.87 118.821C114.813 118.403 114.622 118.254 114.238 118.152C108.68 116.681 103.785 113.991 99.6313 110.016C93.9608 104.588 90.5473 97.9736 89.4322 90.1909C89.407 90.021 89.3834 89.8497 89.3509 89.6813C89.3376 89.6104 89.3022 89.5454 89.1855 89.2338ZM103.729 117.648C103.729 117.648 103.817 117.682 103.903 117.72C106.294 118.799 108.689 119.867 111.067 120.973C111.29 121.076 111.553 121.429 111.542 121.654C111.443 123.807 111.3 125.96 111.132 128.109C111.12 128.252 110.767 128.507 110.619 128.478C108.367 128.041 106.21 127.304 104.163 126.262C104.014 126.187 103.875 125.93 103.87 125.756C103.81 123.063 103.773 120.37 103.729 117.648Z" fill="#A5B4FC"/>
<path id="Vector_28" d="M62.4404 63.3127C64.6752 61.8017 66.7401 60.4044 68.876 58.9613C67.4285 57.9864 66.0976 57.1933 64.879 56.2539C57.3253 50.4268 52.869 42.7919 51.6076 33.318C51.2516 30.6445 51.2443 27.9666 51.6194 25.2945C51.711 24.6446 51.5382 24.2842 50.9518 23.9489C47.1336 21.7688 43.0451 20.466 38.6759 20.0081C38.1634 19.955 37.9418 20.0968 37.7926 20.599C36.5164 24.8647 36.2181 29.1955 36.8355 33.6001C36.896 34.0299 37.0452 34.2101 37.4721 34.3371C50.9237 38.3695 59.1214 47.263 62.0741 60.9908C62.2174 61.6599 62.2897 62.3438 62.4404 63.3113V63.3127ZM40.5075 24.0331C40.7719 23.9888 40.8472 23.9549 40.9137 23.9667C43.2179 24.4068 45.4187 25.1601 47.5117 26.2148C47.6934 26.3063 47.8234 26.6712 47.8293 26.9119C47.881 28.7509 47.8766 30.5928 47.9327 32.4317C47.9578 33.2426 48.0848 34.0521 48.1764 34.9649C47.8721 34.8039 47.686 34.6961 47.491 34.6045C45.6964 33.7552 43.9284 32.8409 42.0968 32.0772C40.1057 31.2471 40.0333 31.3077 40.1131 29.095C40.1751 27.3905 40.3716 25.6919 40.5045 24.0317L40.5075 24.0331Z" fill="#A5B4FC"/>
<path id="Vector_29" d="M62.7108 89.6636C61.5513 87.3343 60.1466 85.259 58.4642 83.3669C57.4746 84.8085 56.5957 86.2604 55.5515 87.5809C49.2784 95.5172 41.091 99.9203 30.9879 100.622C28.9643 100.762 26.9126 100.591 24.8802 100.455C24.1786 100.408 23.8315 100.591 23.4991 101.176C21.3751 104.904 20.0768 108.889 19.6115 113.155C19.5391 113.814 19.6602 114.144 20.3751 114.351C24.6025 115.579 28.8816 115.845 33.2315 115.248C33.6481 115.19 33.8046 115.007 33.911 114.629C37.1295 103.267 44.3302 95.5482 55.3476 91.4213C57.4007 90.6518 59.6252 90.3342 61.7714 89.8157C62.055 89.7478 62.3474 89.7212 62.7108 89.6636ZM34.4368 104.056C34.4191 104.102 34.3763 104.235 34.3186 104.362C33.2581 106.709 32.1754 109.046 31.1503 111.409C30.9598 111.848 30.6924 111.963 30.3158 111.942C28.2582 111.827 26.2036 111.684 24.1461 111.568C23.5464 111.534 23.4563 111.232 23.6173 110.737C24.1609 109.057 24.6424 107.353 25.2642 105.703C25.824 104.214 25.892 104.289 27.4473 104.27C29.7752 104.241 32.103 104.131 34.4383 104.056H34.4368Z" fill="#A5B4FC"/>
<path id="Vector_30" d="M88.8679 62.9507C90.2933 65.06 91.6891 67.1264 93.1514 69.2917C93.3789 69.0037 93.4911 68.8885 93.5709 68.7541C98.971 59.6495 106.891 54.143 117.281 52.2095C120.368 51.6349 123.495 51.5551 126.613 51.9835C127.416 52.0943 127.874 51.9348 128.303 51.1682C130.382 47.4415 131.65 43.4741 132.105 39.2349C132.173 38.6072 132.003 38.3428 131.379 38.1597C127.133 36.9101 122.829 36.6398 118.454 37.2453C117.972 37.3118 117.882 37.5777 117.779 37.9588C115.943 44.7296 112.386 50.4252 107.024 54.9583C102.04 59.1724 96.3168 61.7824 89.8354 62.6863C89.6404 62.7129 89.4469 62.7484 89.2534 62.7868C89.187 62.8 89.1264 62.8384 88.8679 62.9492V62.9507ZM117.276 48.4046C117.275 48.4134 117.285 48.3189 117.324 48.2362C118.409 45.8448 119.486 43.449 120.604 41.0739C120.716 40.8361 121.099 40.5687 121.346 40.5791C123.455 40.6677 125.56 40.8184 127.667 40.9484C128.221 40.9823 128.227 41.322 128.096 41.7223C127.52 43.4963 126.982 45.285 126.341 47.0353C125.889 48.2702 125.824 48.1978 124.49 48.214C122.087 48.2421 119.685 48.3366 117.276 48.4046Z" fill="#A5B4FC"/>
<path id="Vector_31" d="M68.6073 93.5499C68.885 94.8689 69.2144 96.0786 69.3887 97.3119C71.2409 110.363 67.1243 121.133 56.971 129.561C56.55 129.911 56.426 130.193 56.5692 130.729C57.6918 134.925 59.5987 138.713 62.3283 142.094C62.6872 142.538 62.9516 142.621 63.4775 142.333C67.3607 140.209 70.6014 137.363 73.2468 133.821C73.5333 133.437 73.5776 133.16 73.3265 132.72C66.6044 120.867 67.498 106.691 75.6426 95.6798C75.7726 95.504 75.8951 95.3238 76.0739 95.0698C73.653 94.1953 71.2099 93.7832 68.6058 93.5513L68.6073 93.5499ZM66.3326 125.357C67.0106 127.177 67.7388 129.153 68.4847 131.122C68.7255 131.759 69.3104 132.437 69.1996 132.989C69.08 133.592 68.3828 134.12 67.8584 134.593C66.5571 135.766 65.2101 136.89 63.832 138.077C62.3844 135.968 61.3549 133.888 60.6179 131.666C60.5662 131.51 60.6474 131.234 60.7671 131.11C62.6311 129.165 64.5099 127.236 66.3326 125.357Z" fill="#A5B4FC"/>
<path id="Vector_32" d="M75.6116 57.4428C78.096 58.267 80.5317 58.7618 83.0678 58.9258C82.7547 57.332 82.3618 55.8284 82.1757 54.3011C80.7296 42.3915 84.3853 32.3327 93.2167 24.1852C93.7219 23.7185 94.2536 23.2753 94.8105 22.8706C95.1605 22.6166 95.2728 22.3669 95.162 21.9416C94.0335 17.6138 92.0779 13.7128 89.2286 10.258C88.9539 9.92562 88.7501 9.88279 88.3705 10.0866C84.3765 12.2313 81.0738 15.1574 78.3722 18.788C78.0931 19.1632 78.1625 19.4128 78.3634 19.7629C81.6336 25.4895 83.1402 31.6533 82.7931 38.2351C82.4356 45.0236 80.2289 51.1727 76.1847 56.6496C76.0104 56.886 75.8405 57.1238 75.6101 57.4413L75.6116 57.4428ZM85.375 27.3565C85.3248 27.2841 85.2716 27.2339 85.2494 27.1718C84.3336 24.7421 83.4149 22.3123 82.5169 19.8766C82.4563 19.7127 82.4829 19.435 82.5863 19.3035C84.0811 17.4247 85.9171 15.9269 87.9347 14.5311C89.3114 16.5296 90.3497 18.627 91.072 20.8781C91.1281 21.0509 90.942 21.3684 90.781 21.5324C89.976 22.3581 89.106 23.1232 88.3247 23.9696C87.3129 25.0641 86.3631 26.2147 85.375 27.3579V27.3565Z" fill="#A5B4FC"/>
<path id="Vector_33" d="M58.4228 69.1104C56.4908 69.4442 54.5692 69.8858 52.6239 70.0911C45.4084 70.8489 38.6302 69.3954 32.3054 65.8461C28.4133 63.6615 25.1564 60.7398 22.381 57.2569C22.217 57.0516 21.7828 56.8862 21.5346 56.9482C17.192 58.0206 13.2985 59.9998 9.84513 62.8447C9.52904 63.1046 9.45666 63.3144 9.66936 63.7073C11.82 67.6939 14.7239 71.0143 18.3619 73.7055C18.6883 73.9478 18.9202 73.9566 19.2718 73.7543C25.1963 70.3526 31.5742 68.8386 38.3879 69.3231C44.9505 69.7898 50.909 71.9655 56.2161 75.8812C56.4332 76.0422 56.6548 76.1973 56.8778 76.3495C56.9133 76.3731 56.9709 76.3628 57.0181 76.3672C57.7803 74.5932 58.5971 70.3083 58.4228 69.1104ZM14.1301 64.1386C16.1064 62.7501 18.1787 61.7487 20.3825 61.022C20.5716 60.9599 20.9172 61.1401 21.0945 61.3085C22.4696 62.6083 23.8078 63.948 25.1874 65.2434C25.7354 65.7589 26.3587 66.1961 26.9554 66.6776C26.8742 66.7485 26.8447 66.7899 26.8048 66.8047C24.3455 67.7308 21.8876 68.6599 19.4224 69.5668C19.2585 69.6273 18.9734 69.5963 18.8464 69.487C17.0502 67.9391 15.4727 66.1946 14.1301 64.1386Z" fill="#A5B4FC"/>
<path id="Vector_34" d="M94.6864 76.1131C93.9641 77.7807 93.1296 82.0908 93.2684 83.4334C94.8548 83.1262 96.4294 82.7362 98.029 82.5265C105.753 81.5117 113.008 82.9475 119.757 86.8513C123.486 89.0079 126.644 91.829 129.279 95.2307C129.579 95.6177 129.855 95.662 130.278 95.5498C134.501 94.4361 138.319 92.5336 141.712 89.7744C142.14 89.4259 142.269 89.16 141.973 88.6238C139.845 84.7436 137.003 81.497 133.462 78.8501C133.077 78.562 132.807 78.5443 132.362 78.7792C119.667 85.5028 107.394 84.7303 95.5461 76.6552C95.3024 76.4897 95.0705 76.308 94.8282 76.1397C94.7928 76.1145 94.7337 76.1219 94.6864 76.1146V76.1131ZM137.588 88.3476C135.604 89.7346 133.495 90.7523 131.25 91.4923C131.095 91.544 130.805 91.38 130.657 91.2353C129.836 90.4244 129.075 89.5499 128.229 88.7686C127.117 87.742 125.943 86.7819 124.776 85.7775C124.854 85.7317 124.907 85.6874 124.969 85.6638C127.4 84.748 129.832 83.8307 132.269 82.9312C132.439 82.8692 132.728 82.8736 132.849 82.9785C134.66 84.5353 136.254 86.2871 137.588 88.3476Z" fill="#A5B4FC"/>
</g>
</svg>
