<svg width="25" height="24" viewBox="0 0 25 24" fill="none" xmlns="http://www.w3.org/2000/svg">
<path d="M23.3236 10.4907C21.7882 9.53771 19.2869 9.33556 18.2281 9.35362C17.1694 9.33556 14.6681 9.53771 13.1327 10.4907C12.8542 12.1875 12.862 16.068 15.1207 22.0159H18.2281H21.3356C23.5943 16.068 23.6021 12.1875 23.3236 10.4907Z" fill="#A5B4FC" stroke="#A5B4FC" stroke-width="1.5" stroke-linecap="round"/>
<path d="M15.4656 4.87329H20.9905V7.21673C19.9724 7.02264 19.083 6.92147 18.1908 6.92143C17.3078 6.92138 16.442 7.02039 15.4656 7.21083V4.87329Z" fill="#A5B4FC" stroke="#A5B4FC" stroke-width="1.5"/>
<path d="M18.1323 1.90967L18.1323 4.14876" stroke="#A5B4FC" stroke-width="1.5"/>
<path d="M16.3567 1.92114H21.7406" stroke="#A5B4FC" stroke-width="1.5"/>
<mask id="path-5-inside-1_5173_1688" fill="white">
<path d="M3.95337 17.6721H10.6336V22.1334C10.6336 22.5946 10.2598 22.9685 9.79861 22.9685H4.7884C4.32723 22.9685 3.95337 22.5946 3.95337 22.1334V17.6721Z"/>
</mask>
<path d="M3.95337 17.6721H10.6336V22.1334C10.6336 22.5946 10.2598 22.9685 9.79861 22.9685H4.7884C4.32723 22.9685 3.95337 22.5946 3.95337 22.1334V17.6721Z" fill="#A5B4FC" stroke="#A5B4FC" stroke-width="3" mask="url(#path-5-inside-1_5173_1688)"/>
<path d="M2.31742 1.87774C2.31064 1.82677 2.3503 1.78149 2.40171 1.78149H12.1852C12.2367 1.78149 12.2763 1.82677 12.2695 1.87774L10.4232 15.7574C10.4176 15.7997 10.3815 15.8313 10.3389 15.8313H4.24805C4.20543 15.8313 4.16938 15.7997 4.16376 15.7574L2.31742 1.87774Z" fill="#A5B4FC" stroke="#A5B4FC" stroke-width="1.5"/>
</svg>
