<svg width="22" height="23" viewBox="0 0 22 23" fill="none" xmlns="http://www.w3.org/2000/svg">
<g id="Group 53">
<path id="Vector 30" d="M15.5637 22C17.2343 21.4756 20.6517 19.6448 20.9574 16.5165C21.1796 14.2418 19.3557 12.558 17.644 11.5723C17.5245 11.5035 17.4056 11.4382 17.288 11.3762" stroke="#F97316" stroke-width="1.5" stroke-linecap="round"/>
<path id="Vector 26" d="M12.2 18.6305C12.9335 18.4893 14.5415 18.1263 15.4989 17.2193C16.4562 16.3124 16.1841 14.6496 14.8338 13.8132" stroke="#4338CA" stroke-width="1.5" stroke-linecap="round"/>
<path id="Vector 27" d="M2.52296 12.1556C4.71903 10.0902 9.21861 9.71461 11.1965 9.78794C10.0853 11.0319 7.72139 13.6905 7.13489 14.3492C6.40176 15.1726 6.08913 15.7405 5.92232 16.7325C5.78888 17.5262 6.01444 18.1558 6.14391 18.3714C1.85364 17.7429 -0.222127 14.7372 2.52296 12.1556Z" stroke="#4338CA" stroke-width="1.5" stroke-linecap="round"/>
<path id="Vector 29" d="M6.73899 14.8092L12.8682 7.90845L13.5492 8.33719L14.4747 8.91995L15.1827 9.36575L12.2253 18.6239C11.39 18.7533 10.5309 18.7922 9.72157 18.7777C8.85344 18.7621 8.0427 18.6851 7.38034 18.5923C6.86044 18.5194 6.43196 18.4369 6.13893 18.3667C5.45314 17.098 6.25322 15.4664 6.73899 14.8092Z" stroke="#4338CA" stroke-width="1.5" stroke-linecap="round"/>
<path id="stroke" d="M13.9325 8.60962C12.0244 12.3112 10.3725 15.507 8.77589 18.6793" stroke="#4338CA" stroke-width="1.5" stroke-linecap="round"/>
<path id="Vector 28" d="M15.1789 9.37216L12.8682 7.9089L15.54 2.00737C16.0236 0.939218 17.3314 0.532952 18.3351 1.13907C19.3004 1.72195 19.5748 2.99771 18.9347 3.92597L15.1789 9.37216Z" fill="#E0E7FF" stroke="#4338CA" stroke-width="1.5" stroke-linecap="round"/>
</g>
</svg>
